PathFileType	4	(X/Y/Z)	Patient4_TMGait_0pt2_02_right_13.trc.trc
DataRate	CameraRate	NumFrames	NumMarkers	Units	OrigDataRate	OrigDataStartFrame	OrigNumFrames
44.585987261147	44.585987261147	4	33	mm	44.585987261147	53	       141
Frame#	Time	R.Midfoot.Superior			Sacral			L.Shoulder			Chest			R.Shoulder			Neck			R.ASIS			L.ASIS			R.Thigh.Superior			R.Thigh.Lateral			R.Thigh.Inferior			R.Patella			L.Thigh.Superior			L.Thigh.Lateral			L.Thigh.Inferior			L.Patella			L.Shank.Superior			L.Shank.Lateral			L.Shank.Inferior			R.Shank.Superior			R.Shank.Lateral			R.Shank.Inferior			R.Heel			R.Midfoot.Lateral			R.Toe			L.Heel			L.Midfoot.Lateral			L.Midfoot.Superior			L.Toe			L.Elbow			L.Wrist			R.Elbow			R.Wrist			
		X1	Y1	Z1	X2	Y2	Z2	X3	Y3	Z3	X4	Y4	Z4	X5	Y5	Z5	X6	Y6	Z6	X7	Y7	Z7	X8	Y8	Z8	X9	Y9	Z9	X10	Y10	Z10	X11	Y11	Z11	X12	Y12	Z12	X13	Y13	Z13	X14	Y14	Z14	X15	Y15	Z15	X16	Y16	Z16	X17	Y17	Z17	X18	Y18	Z18	X19	Y19	Z19	X20	Y20	Z20	X21	Y21	Z21	X22	Y22	Z22	X23	Y23	Z23	X24	Y24	Z24	X25	Y25	Z25	X26	Y26	Z26	X27	Y27	Z27	X28	Y28	Z28	X29	Y29	Z29	X30	Y30	Z30	X31	Y31	Z31	X32	Y32	Z32	X33	Y33	Z33	

53	29.836285714286	876.254198575597	95.806470107354	575.110759971115	660.390541047839	981.063328148170	519.023202115538	877.832907598658	1402.380506823319	330.564652399012	955.933038482177	1332.830934627999	504.096171203049	856.982553903769	1419.542587669178	661.682501720676	846.778064815380	1467.635074655369	483.172495877255	888.670539124415	921.945121507621	646.241511971305	880.823735214702	930.951035411650	372.075813523842	955.339549916751	732.252773426706	597.740053368485	891.309253258599	608.528771818872	650.157315358867	971.405799500154	570.538851373325	563.145164627183	982.890010988823	471.427756083802	565.759752254889	946.062506269841	732.030437676666	400.417653667427	885.957380350910	611.636184978201	319.054769927883	977.518395931155	536.762445060524	384.820272999823	977.135020489905	447.410155787905	373.852028008857	902.857475851338	391.343081101668	356.960254665621	759.706438473243	368.875281442268	298.493306801525	730.039982914508	237.303185391051	341.105642853734	934.508095526658	384.033511316341	570.270886855360	847.330294189722	292.620600219129	632.266184819440	865.863462111645	195.052953096002	565.695309963298	704.256954226646	44.861708852082	539.287598860349	786.893576348619	37.766003152129	613.862383565530	995.199951295646	40.030862489466	606.131264667882	530.597620917982	190.375866054027	364.166705438248	588.449477597515	142.845946703747	285.246662449813	693.086099678619	141.560574341527	311.163655989225	763.315791045265	32.122960893756	282.630659051953	938.121378541184	1061.469800044479	211.814590014442	1129.774776025771	888.315003651245	223.246813056560	777.720482986156	1086.306169447167	796.230946478334	844.505852344562	835.302125619268	832.397767700437	
54	29.858714285714	871.954117794737	95.681614491389	574.969793454736	659.681122578931	978.323610963068	524.383709350664	872.725568548556	1398.767044315464	330.545168086146	955.081653773451	1330.022028419659	502.571212066775	860.054454260340	1417.109285044446	662.564270255130	845.751644405527	1465.102809918029	483.878027341106	890.166343970017	919.792810577432	647.810283789333	877.777630244658	928.760747593520	373.803643487817	956.844968031676	730.198008171547	598.505121678894	893.608490357938	606.244265698835	650.680123019301	972.967675819968	568.838898389308	562.598936920901	984.405786050798	469.144188688633	564.638991410669	950.995331316701	735.863262663934	404.003225117663	897.508165376374	612.976350373808	322.355360233540	992.226671073188	542.000486168959	389.028375062053	994.959637177404	451.580174903801	377.530246446236	920.127571786760	394.163628944074	360.664233353387	775.523849417980	373.503453360858	303.755926284432	745.243977746899	241.602960421198	345.495971490520	934.847470227597	381.963809434947	569.566660199607	846.723197169711	291.583923557008	631.947229528866	863.436175543826	193.894381487093	565.260347326805	699.895392559226	44.967505130545	539.338240491357	782.496468876274	37.787602246170	613.893768804321	990.817979314041	39.791175575665	606.202293651915	545.303964262019	197.452233067586	371.088959505741	601.000544597404	149.890433971124	290.364827733548	706.566519348551	145.876649486650	314.765995630270	773.994107380002	32.627807149299	282.626874613296	914.542577200365	1050.849804866673	218.285032494901	1084.854471429187	857.728392698321	228.899764256522	802.463289879216	1080.493565087995	801.635610010253	891.985850853741	836.917452566674	836.463688607347	
55	29.881142857143	867.627063313134	95.578542885312	574.853518049445	659.047509206311	976.051669922784	529.226406108612	867.383009253966	1395.684940727711	330.416233114141	954.111753832994	1327.744652244689	500.740658482790	863.135702871030	1415.213405575926	663.092337730603	844.641489242041	1463.020632969234	484.399763696255	891.568177727116	917.931542130480	648.888906775040	874.757070362290	927.146048369670	375.136685779610	957.939826281666	728.260369648664	598.817513050621	895.334506681584	604.205153199597	650.855925849318	973.835543477702	567.223872444547	561.733232993019	985.114258229529	467.073158851203	563.246490742347	955.018115468038	740.090936244529	407.103831633946	907.654446610261	615.050896507953	325.279535278753	1005.058035827585	547.886213559678	392.864889091493	1010.998246201947	456.782668133958	380.957658284723	936.424811441053	397.699185123139	364.149533887284	790.974845957269	376.706645308591	308.870264193788	762.051543045389	244.333363391100	349.954457309718	934.548708249191	380.093075356414	568.672131503102	845.652149275863	290.649541639038	631.518016690792	860.727630097407	192.836567161573	564.771620349435	695.501684823622	45.017179624309	539.406967497524	778.075026665209	37.794562498833	613.953403618411	986.405146814197	39.624547101497	606.260014584553	562.775336849028	199.508087639351	378.254486384067	616.987164569623	153.159961949480	295.717858558432	723.177787594320	148.513317035966	318.556416047783	789.830561447014	33.437619664274	282.800448824319	890.143752858458	1042.223755283458	224.536549208678	1036.645351377758	831.130685338645	234.751552186320	828.129404002702	1076.533099073606	805.870595805441	940.952114642090	842.926063950494	837.849509026197	
56	29.903571428571	863.266473235306	95.501755210422	574.778933268780	658.541011974744	974.453741946755	533.577745716323	861.865290878141	1393.365240578666	330.195525238926	953.081737120726	1326.192539407666	498.584897599718	866.308186363161	1414.031711468502	663.232471523749	843.512185228638	1461.566965637735	484.739211060740	892.914393259608	916.522652834252	649.457027095608	871.797720506896	926.269864444615	376.039390649850	958.533102695977	726.536315623607	598.710239339014	896.317876906908	602.553745148850	650.771238942963	973.814460318118	565.771560416940	560.647548305199	984.774854243546	465.319434990638	561.712321020947	958.027397311352	744.638328405198	409.656022332026	916.129877060681	617.776021796936	327.804203265973	1015.706523462154	554.202917180344	396.268501385502	1024.870922416799	462.847703437643	384.067813128676	951.431777020576	401.832970800435	367.331610300848	805.908106705027	378.235797988777	313.615100416740	780.417159435381	245.301676337621	354.265382012414	933.407535451209	378.532203734140	567.691308759700	843.966908452683	289.867293298183	631.056192705864	857.655753773854	191.943168087146	564.282022136762	691.065992541337	45.014002481673	539.497130243293	773.625042757233	37.785726105116	614.042655483187	981.958867267854	39.523630732820	606.302846546870	583.071725583361	196.273976363962	385.209590996705	636.584526013451	152.303190196056	300.999426692270	743.029276511089	149.224139635992	322.357530794995	811.040632739188	34.496649600006	283.274563369760	865.144862883549	1035.964210877725	230.431532364678	986.023524303214	809.456421213171	240.720498296620	854.449082043633	1074.758947735847	808.857411216740	990.541877354063	853.841104273174	836.387879520691	
